# xmcd
#
# Track frame offsets:
#	150
#	14562
#	31098
#	44904
#	58285
#	71851
#	86089
#	109564
#	124046
#	137751
#	151947
#	166644
#	179513
#	193375
#
# Disc length: 2761 seconds
#
# Revision: 1
# Processed by: cddbd v1.5.2PL0 Copyright (c) Steve Scherf et al.
# Submitted via: audiograbber 1.83.01
#
DISCID=ca0ac70e
DTITLE=Andreas Martin - Mondsüchtig
DYEAR=2008
DGENRE=Fox
TTITLE0=Alles aus
TTITLE1=Die Jahre mit Dir
TTITLE2=Durch jeden Tunnel führt ein Weg ans Licht
TTITLE3=Endlich wieder mal
TTITLE4=Geh deinen Weg
TTITLE5=Ich fang Dir den Mond
TTITLE6=Ich fang Dir den Mond ( Maxi Version )
TTITLE7=Ist schon lange her
TTITLE8=Nein
TTITLE9=Ohne Dich
TTITLE10=Sag's mir
TTITLE11=Tiefe Gefühle
TTITLE12=Wenn Du gehst
TTITLE13=Wir werden die Sieger sein
EXTD=
EXTT0=
EXTT1=
EXTT2=
EXTT3=
EXTT4=
EXTT5=
EXTT6=
EXTT7=
EXTT8=
EXTT9=
EXTT10=
EXTT11=
EXTT12=
EXTT13=
PLAYORDER=
